Coordinates
version=1
nRows=5
nColumns=40
inDegrees=yes

Units are S.I. units (second, meters, Newtons, ...)
Angles are in degrees.

endheader
time	pelvis_tilt	pelvis_list	pelvis_rotation	pelvis_tx	pelvis_ty	pelvis_tz	hip_flexion_r	hip_adduction_r	hip_rotation_r	knee_angle_r	knee_angle_r_beta	ankle_angle_r	subtalar_angle_r	mtp_angle_r	hip_flexion_l	hip_adduction_l	hip_rotation_l	knee_angle_l	knee_angle_l_beta	ankle_angle_l	subtalar_angle_l	mtp_angle_l	lumbar_extension	lumbar_bending	lumbar_rotation	arm_flex_r	arm_add_r	arm_rot_r	elbow_flex_r	pro_sup_r	wrist_flex_r	wrist_dev_r	arm_flex_l	arm_add_l	arm_rot_l	elbow_flex_l	pro_sup_l	wrist_flex_l	wrist_dev_l
     22.40228571	     -8.90290562	     -4.14743424	     -8.51376998	      0.82954795	      0.92196776	      0.46377134	     28.80224257	      1.38054768	    -14.57859111	     11.71447787	     11.71447787	      1.69747869	      3.80385693	      6.73889149	      8.94936405	     -5.50703856	    -12.41213469	     17.39276245	     17.39276245	     17.55437058	    -10.23313713	     -3.42628556	     -9.48417908	      3.77615250	      0.31384055	    -11.81328621	    -15.58427289	    -16.27388327	     23.53734055	     47.83217815	      0.00000000	      0.00000000	     18.81356196	    -15.07826956	     -8.62833684	     82.37820550	     47.49473544	      0.00000000	      0.00000000
     22.41457143	     -8.96740059	     -4.01199423	     -8.57239799	      0.83088705	      0.92057336	      0.46576500	     28.82856658	      1.54372519	    -14.53285683	     11.62484147	     11.62484147	      1.48412846	      3.99795603	      6.83588198	      8.47973642	     -5.42538156	    -12.40777730	     17.41572464	     17.41572464	     17.96526261	    -10.33727881	     -3.54869009	     -9.26984090	      3.72412366	      0.24664073	    -11.80726391	    -15.48931893	    -16.27463802	     23.58008795	     47.82894792	      0.00000000	      0.00000000	     18.61843650	    -14.95267461	     -8.54057845	     82.33670243	     47.48776367	      0.00000000	      0.00000000
     22.42685714	     -8.79632710	     -3.95260784	     -8.63935770	      0.83294982	      0.92009097	      0.46772259	     27.91994871	      1.76619777	    -14.97927417	     10.68910159	     10.68910159	      1.10813495	      5.54656734	      6.85231986	      7.43412458	     -5.30496308	    -12.40700873	     16.92580230	     16.92580230	     18.35527989	    -10.19853364	     -2.96609521	     -9.30363149	      3.84662721	     -0.05135990	    -11.57921275	    -15.23967940	    -16.38080189	     24.34011804	     47.78319079	      0.00000000	      0.00000000	     17.54392643	    -14.98964678	     -7.97541715	     81.99152576	     47.45446005	      0.00000000	      0.00000000
     22.43914286	     -8.84925401	     -3.90297694	     -8.64422811	      0.83473639	      0.91896329	      0.46976548	     27.73232568	      1.91448298	    -14.81589762	     10.89885174	     10.89885174	      1.00641748	      5.64414466	      6.75842514	      6.94893923	     -5.31716357	    -12.30787787	     16.99429566	     16.99429566	     18.70194627	    -10.27976193	     -2.99549678	     -9.05766189	      3.95802094	     -0.03987078	    -11.38990395	    -15.03906384	    -16.36291614	     24.47281819	     47.77412618	      0.00000000	      0.00000000	     16.90938312	    -14.62512486	     -7.74632238	     81.73322214	     47.43273761	      0.00000000	      0.00000000
     22.45142857	     -8.75805689	     -3.85671988	     -8.56656056	      0.83672924	      0.91813053	      0.47179529	     27.54311397	      1.94266607	    -14.59098088	     11.62247467	     11.62247467	      0.83169200	      5.28327105	      5.65704834	      6.36930879	     -5.31149839	    -12.12586785	     17.17827224	     17.17827224	     19.10049408	    -10.40384298	     -2.35511812	     -8.86267074	      4.08045813	     -0.50161284	    -10.88107517	    -14.86870620	    -16.35356839	     24.98027203	     47.73784550	      0.00000000	      0.00000000	     16.14324282	    -14.65924902	     -7.32958259	     80.56282934	     47.39225266	      0.00000000	      0.00000000
